<?xml version="1.0" standalone="no"?>
<!DOCTYPE svg PUBLIC "-//W3C//DTD SVG 20010904//EN"
 "http://www.w3.org/TR/2001/REC-SVG-20010904/DTD/svg10.dtd">
<svg version="1.0" xmlns="http://www.w3.org/2000/svg"
 width="618.000000pt" height="306.000000pt" viewBox="0 0 618.000000 306.000000"
 preserveAspectRatio="xMidYMid meet">

<g transform="translate(0.000000,306.000000) scale(0.100000,-0.100000)"
fill="#000000" stroke="none">
<path d="M2184 2946 c-17 -8 -42 -31 -55 -52 l-24 -39 -5 -780 -5 -780 -28 -3
c-21 -3 -32 -13 -48 -45 -12 -23 -30 -54 -41 -69 l-19 -27 68 -3 68 -3 5 -355
5 -355 35 -17 c68 -34 154 -11 192 51 22 35 23 45 28 356 l5 320 175 3 c124 2
176 6 182 15 11 17 10 75 -2 97 -16 31 -67 40 -216 40 l-144 0 0 816 0 815
-35 15 c-43 17 -100 18 -141 0z"/>
<path d="M3090 2775 c-8 -2 -32 -6 -52 -10 l-38 -6 1 -692 c0 -494 4 -705 12
-737 9 -33 21 -51 47 -68 33 -22 42 -24 140 -20 59 2 111 8 118 12 9 5 12 87
12 317 l0 309 310 0 310 0 0 -270 c0 -299 4 -326 59 -354 31 -17 151 -22 224
-10 l37 7 0 709 c0 782 2 761 -62 795 -36 19 -152 25 -220 10 l-38 -8 0 -309
0 -310 -309 0 -310 0 -3 273 c-4 298 -7 316 -62 344 -29 15 -142 27 -176 18z"/>
<path d="M4735 2775 c-5 -2 -27 -6 -47 -10 l-38 -6 1 -702 c0 -517 3 -711 12
-737 20 -56 66 -80 156 -80 42 0 93 3 114 6 l37 7 0 723 0 722 -26 31 c-14 17
-42 35 -62 41 -35 9 -125 13 -147 5z"/>
<path d="M1041 2678 c-19 -13 -44 -39 -55 -58 -21 -34 -21 -50 -24 -690 l-3
-656 -47 -13 c-213 -56 -395 -247 -448 -467 -24 -98 -23 -273 0 -344 50 -148
161 -219 326 -207 183 13 300 101 370 279 42 109 60 226 67 440 l6 187 195 -2
195 -2 14 50 c11 38 12 57 4 79 l-11 28 -200 -4 -200 -3 0 682 0 683 -26 17
c-14 9 -49 18 -77 21 -42 3 -58 -1 -86 -20z m-81 -1718 c0 -395 -57 -580 -181
-591 -90 -8 -154 33 -183 118 -32 94 -14 264 40 379 29 62 108 153 161 185 35
22 140 68 156 69 4 0 7 -72 7 -160z"/>
<path d="M5343 1587 c-18 -7 -36 -16 -42 -22 -5 -5 -24 -70 -41 -144 -17 -73
-47 -188 -67 -255 -50 -171 -49 -158 -11 -179 45 -24 118 -32 161 -18 94 31
214 253 248 458 21 125 -22 174 -153 172 -35 0 -77 -6 -95 -12z"/>
<path d="M3402 831 c-19 -5 -38 -13 -43 -18 -5 -5 -8 -89 -7 -194 l3 -184 38
-3 37 -3 0 70 0 71 33 0 c28 -1 37 -9 80 -70 40 -59 53 -70 76 -70 55 0 56 22
4 90 l-47 63 26 21 c34 28 48 57 48 101 0 49 -24 91 -62 111 -37 19 -138 27
-186 15z m142 -82 c57 -45 20 -109 -64 -109 l-50 0 0 58 c0 32 3 62 7 65 14
15 81 6 107 -14z"/>
<path d="M4776 831 c-21 -5 -42 -14 -47 -22 -5 -8 -9 -87 -9 -176 0 -147 2
-165 19 -182 40 -40 173 -39 246 2 85 48 115 184 63 285 -41 79 -152 117 -272
93z m152 -81 c18 -11 40 -36 48 -55 43 -103 -20 -205 -128 -205 l-38 0 0 140
0 140 43 0 c24 0 56 -8 75 -20z"/>
<path d="M5204 820 c-61 -31 -81 -89 -49 -149 14 -27 73 -60 138 -76 32 -9 58
-41 50 -64 -15 -44 -82 -54 -146 -22 -42 21 -61 10 -55 -31 4 -28 46 -50 108
-56 105 -10 180 41 180 122 0 66 -20 84 -162 140 -30 12 -38 20 -38 40 0 45
48 55 153 30 24 -6 27 -3 27 17 0 36 -13 50 -56 59 -62 15 -106 12 -150 -10z"/>
<path d="M5505 830 c-4 -6 -3 -65 0 -130 8 -123 16 -145 52 -138 23 4 35 80
31 193 l-3 80 -37 3 c-20 2 -39 -2 -43 -8z"/>
<path d="M3020 820 c-12 -7 -16 -41 -18 -179 -4 -194 1 -211 53 -211 l35 0 0
80 0 79 78 3 c76 3 77 3 80 31 l3 27 -80 0 -81 0 0 55 0 55 85 0 c89 0 108 10
98 51 -5 17 -17 19 -122 19 -64 0 -123 -5 -131 -10z"/>
<path d="M3740 646 c0 -101 3 -191 6 -200 4 -11 19 -16 45 -16 l39 0 0 181 c0
105 -4 188 -10 200 -8 13 -21 19 -45 19 l-35 0 0 -184z"/>
<path d="M3942 818 c-19 -19 -17 -362 2 -377 9 -8 54 -11 132 -9 l119 3 0 30
0 30 -92 3 -93 3 0 49 0 49 83 3 82 3 0 30 0 30 -82 3 -83 3 0 44 0 44 86 3
c91 3 115 15 101 52 -5 14 -24 16 -125 16 -78 0 -122 -4 -130 -12z"/>
<path d="M4287 823 c-9 -8 -9 -356 -1 -377 4 -10 18 -16 40 -16 l34 0 0 147 0
148 71 -130 c91 -165 93 -167 143 -163 l41 3 0 195 0 195 -37 3 -38 3 0 -143
0 -143 -74 134 c-41 73 -80 137 -87 142 -17 10 -83 12 -92 2z"/>
<path d="M5511 506 c-22 -26 -9 -70 23 -81 24 -8 31 -6 47 14 23 28 24 45 3
65 -19 20 -58 21 -73 2z"/>
</g>
</svg>
